<?xml version="1.0" encoding="utf-8"?>
<svg version="1.1" id="Layer_1" xmlns="http://www.w3.org/2000/svg" xmlns:xlink="http://www.w3.org/1999/xlink" x="0px" y="0px"
	 width="1260px" height="84px" viewBox="0 0 1260 84" style="enable-background:new 0 0 1260 84;" xml:space="preserve">
<style type="text/css">
	.st0{fill:none;stroke:#000000;stroke-miterlimit:10;}
</style>
<path class="st0" d="M1256.47,81.66c-8.71,0-15.97,0.3-25.78,0.3c-2.65,0-7-0.38-10.26-0.38c-8.26,0-13.57,0.89-21.39-1.45
	c-7.14-2.14-16.48-1.57-25.05-1.74c-4.29-0.08-9.23-2.67-13.14-3.85c-2.12-0.64-3.41-1.83-9.41-1.83c-4.42,0-12.02-0.01-16.34-0.38
	c-2.87-0.25-5.43-0.35-10.68,0.33c-9.67,1.26-15.48,2.53-26.14,0.71c-8.77-1.5-17.88-2.49-26.37-1.57
	c-1.78,0.19-4.75,0.52-10.16-0.37c-3.54-0.59-6.81-2.01-10.26-3.02c-5.13-1.49-10.29-2.08-15.29-3.12c-3.63-0.75-6.1-3.31-8.48-2.97
	c-2,0.29-7.56,4.76-10.38,6.53c-4.68,2.95-7.05,3.58-12.2,5.57c-2.53,0.98-7.39,1.03-9.94,1.21c-4.41,0.31-7.81,2.65-12.17,3.4
	c-3.12,0.54-6.55,0.77-9.71,0.76c-7.21-0.04-14.41-0.02-21.62-0.13c-10.15-0.15-20.31-0.37-29.96-0.51
	c-1.48-0.02-5.48-1.34-10.48-3.71c-3.71-1.76-7.64-1.98-11.6-1.78c-3.96,0.2-7.29,0.6-11.81,0.83c-1.5,0.08-4.29-0.09-6.27-0.43
	c-1.43-0.25-10.75-3.3-17.6-7.06c-3.24-1.78-9.6-4.23-19.7-8.06c-8.17-3.1-18.73-1.92-22.81-2.91c-7.67-1.86-18.21-6.59-29.79-7.92
	c-16.35-1.88-32.63-5.98-39.76-7.42c-4.63-0.94-8.51-1.53-12.59-1.9c-5.94-0.52-19.65-0.78-27.3-0.62
	c-6.11,0.13-12.38-0.35-17.96-2.9c-4.59-2.09-9.42-3.97-14.11-5.82c-5.02-1.98-6.89-4.39-11.88-4.39c-9.37,0-20.02-0.27-35.11-0.88
	c-8.57-0.35-24.77,0.56-32.91,1.87c-1.47,0.24-6.2,0.73-7.69,0.82c-2.86,0.16-4.98-1.34-8.5-2.4c-3.13-0.95-6.67-0.66-8.99-1.72
	c-3.88-1.77-4.27-2.66-7.96-2.72s-7.09,1.35-10.75,1.73c-8.16,0.85-18.17,0.21-26.33-0.6c-7.33-0.72-10.7-6.49-17.55-7.77
	c-3.59-0.67-8.39-0.07-11.87-1.17c-3.56-1.12-6.29-4.42-9.9-5.36c-1.87-0.49-8.65-0.45-10.71-0.9c-2.79-0.62-6.49-1.22-9.12-2.33
	c-3.11-1.32-6.1-1.97-9.39-1.22c-3.49,0.79-5.68,1.53-8.56,3.65c-2.2,1.63-4.79,3.58-9.35,4.21c-2.43,0.34-14.46,1.4-18.22,0.76
	c-2.08-0.35-8-2.08-11.32-2.06c-7,0.05-17.01,0.82-24,0.41c-7.23-0.42-12.6,1.11-18.85,3.48s-13.52,5.11-19.91,7.07
	c-3.67,1.13-6.45,2.15-10.09,3.36c-4.42,1.47-9.6,3.31-13.82,5.28c-13.02,6.09-25.99,10.84-40.1,13.61
	c-19.1,3.75-38.19,7.25-55.39,14.73c-6.08,2.64-12.12,5.81-18.73,6.39c-2.76,0.24-5.54,0.03-8.3,0.23
	c-4.03,0.29-7.93,1.45-11.79,2.64c-3.52,1.08-9.27,2.88-14.21,3.87c-11.58,2.32-23.16,4.2-34.85,4.83
	c-4.25,0.23-8.28,0.13-12.43,1.11c-4.38,1.04-8.49,2.97-12.8,4.28c-6.68,2.02-14.47,1.5-21.44,1.82c-14.42,0.67-36.91-3.03-42.9-3.3
	c-6.2-0.28-24.76,0.03-28.32,0.51c-7.58,1.03-13.6,1.96-23.21,1.96"/>
</svg>
