<svg xmlns="http://www.w3.org/2000/svg" width="1260" height="84" style="enable-background:new 0 0 1260 84" xml:space="preserve"><path d="M1256.47 81.66c-8.71 0-15.97.3-25.78.3-2.65 0-7-.38-10.26-.38-8.26 0-13.57.89-21.39-1.45-7.14-2.14-16.48-1.57-25.05-1.74-4.29-.08-9.23-2.67-13.14-3.85-2.12-.64-3.41-1.83-9.41-1.83-4.42 0-12.02-.01-16.34-.38-2.87-.25-5.43-.35-10.68.33-9.67 1.26-15.48 2.53-26.14.71-8.77-1.5-17.88-2.49-26.37-1.57-1.78.19-4.75.52-10.16-.37-3.54-.59-6.81-2.01-10.26-3.02-5.13-1.49-10.29-2.08-15.29-3.12-3.63-.75-6.1-3.31-8.48-2.97-2 .29-7.56 4.76-10.38 6.53-4.68 2.95-7.05 3.58-12.2 5.57-2.53.98-7.39 1.03-9.94 1.21-4.41.31-7.81 2.65-12.17 3.4-3.12.54-6.55.77-9.71.76-7.21-.04-14.41-.02-21.62-.13-10.15-.15-20.31-.37-29.96-.51-1.48-.02-5.48-1.34-10.48-3.71-3.71-1.76-7.64-1.98-11.6-1.78-3.96.2-7.29.6-11.81.83-1.5.08-4.29-.09-6.27-.43-1.43-.25-10.75-3.3-17.6-7.06-3.24-1.78-9.6-4.23-19.7-8.06-8.17-3.1-18.73-1.92-22.81-2.91-7.67-1.86-18.21-6.59-29.79-7.92-16.35-1.88-32.63-5.98-39.76-7.42-4.63-.94-8.51-1.53-12.59-1.9-5.94-.52-19.65-.78-27.3-.62-6.11.13-12.38-.35-17.96-2.9-4.59-2.09-9.42-3.97-14.11-5.82-5.02-1.98-6.89-4.39-11.88-4.39-9.37 0-20.02-.27-35.11-.88-8.57-.35-24.77.56-32.91 1.87-1.47.24-6.2.73-7.69.82-2.86.16-4.98-1.34-8.5-2.4-3.13-.95-6.67-.66-8.99-1.72-3.88-1.77-4.27-2.66-7.96-2.72s-7.09 1.35-10.75 1.73c-8.16.85-18.17.21-26.33-.6-7.33-.72-10.7-6.49-17.55-7.77-3.59-.67-8.39-.07-11.87-1.17-3.56-1.12-6.29-4.42-9.9-5.36-1.87-.49-8.65-.45-10.71-.9-2.79-.62-6.49-1.22-9.12-2.33-3.11-1.32-6.1-1.97-9.39-1.22-3.49.79-5.68 1.53-8.56 3.65-2.2 1.63-4.79 3.58-9.35 4.21-2.43.34-14.46 1.4-18.22.76-2.08-.35-8-2.08-11.32-2.06-7 .05-17.01.82-24 .41-7.23-.42-12.6 1.11-18.85 3.48s-13.52 5.11-19.91 7.07c-3.67 1.13-6.45 2.15-10.09 3.36-4.42 1.47-9.6 3.31-13.82 5.28-13.02 6.09-25.99 10.84-40.1 13.61-19.1 3.75-38.19 7.25-55.39 14.73-6.08 2.64-12.12 5.81-18.73 6.39-2.76.24-5.54.03-8.3.23-4.03.29-7.93 1.45-11.79 2.64-3.52 1.08-9.27 2.88-14.21 3.87-11.58 2.32-23.16 4.2-34.85 4.83-4.25.23-8.28.13-12.43 1.11-4.38 1.04-8.49 2.97-12.8 4.28-6.68 2.02-14.47 1.5-21.44 1.82-14.42.67-36.91-3.03-42.9-3.3-6.2-.28-24.76.03-28.32.51-7.58 1.03-13.6 1.96-23.21 1.96" style="fill:none;stroke:#000;stroke-miterlimit:10"/></svg>
